<svg xmlns="http://www.w3.org/2000/svg" width="500" height="500" style="width:100%;height:100%;transform:translate3d(0,0,0);content-visibility:visible" viewBox="0 0 500 500"><defs><clipPath id="a"><path d="M0 0h500v500H0z"/></clipPath><clipPath id="c"><path d="M0 0h500v500H0z"/></clipPath><clipPath id="b"><path d="M0 0h500v500H0z"/></clipPath></defs><g clip-path="url(#a)"><g clip-path="url(#b)" style="display:block"><g class="primary design" style="display:block"><path fill="none" stroke="#C61F15" stroke-width="41.66" d="M-4957.498-4957.498" class="primary"/><path fill="#C61F15" d="M401.02 166.474H98.983c-19.996 0-36.452 16.455-36.452 36.452v93.735c0 20.205 16.456 36.66 36.452 36.66H401.02c19.997 0 36.453-16.455 36.453-36.452v-93.735c0-20.205-16.456-36.66-36.453-36.66zm5.207 130.395c0 2.917-2.291 5.208-5.208 5.208H98.984c-2.916 0-5.207-2.291-5.207-5.208v-93.735c0-2.916 2.291-5.207 5.207-5.207H401.02c2.917 0 5.208 2.291 5.208 5.207v93.735zm15.623 88.528H78.153c-8.54 0-15.622 7.082-15.622 15.622s7.082 15.623 15.622 15.623H421.85c8.54 0 15.623-7.082 15.623-15.623 0-8.54-7.082-15.622-15.623-15.622zM78.154 114.607H421.85c8.54 0 15.623-7.082 15.623-15.623 0-8.54-7.082-15.622-15.623-15.622H78.154c-8.54 0-15.622 7.082-15.622 15.622s7.082 15.623 15.622 15.623z" class="primary"/></g><g class="primary design" style="display:none"><path fill="none" class="primary"/><path class="primary"/><path class="primary"/><path class="primary"/></g><g class="primary design" style="display:none"><path fill="none" class="primary"/></g><g class="primary design" style="display:none"><path fill="none" class="primary"/></g><g class="primary design" style="display:none"><path fill="none" class="primary"/></g><g class="primary design" style="display:none"><path fill="none" class="primary"/></g><g class="primary design" style="display:none"><path fill="none" class="primary"/></g><g class="primary design" style="display:none"><path fill="none" class="primary"/></g></g><g clip-path="url(#c)" style="display:none"><g class="primary design" style="display:none"><path fill="none" class="primary"/><path class="primary"/><path class="primary"/><path class="primary"/></g><g class="primary design" style="display:none"><path fill="none" class="primary"/></g><g class="primary design" style="display:none"><path fill="none" class="primary"/></g><g class="primary design" style="display:none"><path fill="none" class="primary"/></g><g class="primary design" style="display:none"><path fill="none" class="primary"/></g><g class="primary design" style="display:none"><path fill="none" class="primary"/></g></g></g></svg>